<svg width="5005" height="1468" viewBox="0 0 5005 1468" fill="none" xmlns="http://www.w3.org/2000/svg">
<path d="M1272.33 223.105C1276.13 227.882 1280.33 232.409 1284.93 236.682C1286.23 235.388 1286.23 234.096 1284.93 232.803C1281.99 229.428 1279.08 226.197 1276.21 223.105C1267.8 197.575 1253.57 175.917 1233.54 158.131C1181.43 129.157 1136.17 137.237 1097.77 182.375C1099.06 183.021 1100.35 183.669 1101.65 184.315C1164.36 172.197 1221.26 185.128 1272.33 223.105Z" fill="white"/>
<path d="M785.508 594.524C812.838 583.908 839.991 572.916 866.968 561.552C849.503 552.283 831.401 544.525 812.662 538.278C794.82 534.054 776.718 532.438 758.355 533.429C748.009 536.356 737.664 539.913 727.322 544.097C708.482 555.456 689.087 565.802 669.137 575.129C680.399 576.512 691.391 579.097 702.109 582.887C728.352 597.052 756.152 600.93 785.508 594.524Z" fill="white"/>
<path d="M164.86 832.116C162.698 824.209 161.406 816.129 160.981 807.872C164.197 789.869 166.782 771.768 168.739 753.565C168.192 733.704 162.05 715.927 150.314 700.228C135.504 683.477 119.988 667.314 103.765 651.74C101.644 648.68 100.026 645.446 98.9164 642.042C96.6879 642.607 95.3945 644.223 95.0371 646.891C83.8888 688.975 88.0913 729.382 107.644 768.112C125.017 790.979 144.09 812.314 164.86 832.116Z" fill="white"/>
<path d="M304.506 758.415C307.433 772.063 310.666 785.64 314.204 799.144C319.369 816.899 325.511 834.355 332.629 851.512C335.905 859.386 340.108 866.498 345.236 872.846C347.078 877.918 350.312 881.797 354.933 884.483C387.318 898.413 418.35 914.899 448.031 933.941C454.945 940.528 461.41 947.317 467.426 954.306C468.072 955.6 468.72 956.892 469.366 958.186C470.677 962.761 472.292 967.286 474.214 971.762C474.81 962.327 473.84 953.277 471.305 944.609C467.048 918.569 457.674 894.649 443.182 872.847C417.445 843.224 390.291 814.779 361.722 787.508C355.749 780.589 350.254 773.479 345.236 766.173C343.088 761.749 340.5 757.546 337.478 753.566C340.934 753.329 344.166 754.299 347.176 756.475C368.866 765.335 390.846 774.063 413.12 782.659C421.182 787.826 428.941 793.32 436.394 799.145C442.744 805.396 448.887 811.861 454.82 818.54C459.721 827.066 464.57 835.47 469.366 843.754C473.442 859.664 476.351 875.826 478.094 892.242C480.602 869.505 478.34 847.523 471.306 826.298C468.544 814.132 464.665 802.495 459.669 791.387C456.447 780.743 451.92 770.724 446.092 761.324C447.244 760.425 448.538 760.101 449.971 760.355C473.995 776.003 488.864 797.984 494.58 826.298C495.874 824.359 497.165 822.419 498.459 820.48C499.72 816.727 500.366 812.848 500.398 808.843C509.974 780.289 518.702 751.196 526.582 721.564C531.256 706.43 537.397 692.207 545.008 678.894C547.558 684.542 549.821 690.361 551.796 696.35C552.562 691.1 553.532 685.929 554.705 680.834C554.705 673.076 554.705 665.318 554.705 657.559C552.762 636.541 545.973 617.146 534.34 599.374C525.172 586.967 516.768 574.036 509.126 560.583C521.004 594.905 531.671 629.817 541.128 665.317C541.382 666.751 541.058 668.044 540.159 669.197C525.385 653.781 509.869 638.911 493.61 624.588C486.975 615.722 480.832 606.672 475.185 597.434C463.844 567.506 462.55 537.119 471.305 506.277C474.269 493.183 477.824 480.254 481.973 467.486C489.253 478.654 497.982 488.676 508.156 497.549C523.275 509.433 537.821 522.04 551.796 535.37C556.664 542.536 561.513 549.649 566.342 556.704C577.021 581.098 578.961 606.312 572.161 632.346C572.161 633.64 572.807 634.285 574.1 634.285C589.087 614.77 606.543 597.962 626.467 583.858C627.844 588.214 628.814 592.741 629.376 597.434C636.467 572.385 635.497 547.493 626.467 522.762C622.912 513.389 619.355 504.013 615.8 494.639C602.738 469.996 589.808 445.428 577.009 420.937C580.781 436.318 584.661 451.834 588.647 467.486C598.589 494.352 607.316 521.505 614.83 548.946C617.725 554.926 619.665 561.392 620.649 568.341C617.922 567.424 616.628 565.485 616.77 562.523C604.487 552.179 592.202 541.834 579.918 531.49C543.391 495.947 528.199 452.629 534.34 401.542C539.485 370.717 542.718 339.685 544.037 308.445C570.058 329.337 594.948 351.32 618.709 374.388C620.003 375.034 621.294 375.682 622.588 376.328C626.855 384.823 632.35 392.581 639.074 399.602C643.58 409.312 647.783 419.009 651.681 428.695C654.443 432.604 655.735 437.128 655.56 442.272C659.086 457.476 660.38 472.992 659.439 488.82C654.976 517.337 647.864 545.46 638.105 573.19C638.429 574.159 638.751 575.129 639.074 576.099C646.243 565.24 655.616 556.835 667.197 550.885C669.077 549.316 670.692 547.376 672.046 545.066C673.01 539.934 673.334 534.762 673.016 529.55C673.677 513.695 674.971 498.179 676.895 483.002C679.49 431.558 704.058 395.029 750.597 373.419C784.298 360.242 819.209 353.131 855.331 352.084C820.802 367.074 789.122 386.47 760.294 410.27C725.113 440.587 698.606 477.116 680.774 519.853C677.798 531.147 674.565 542.138 671.076 552.825C670.766 556.12 671.088 559.353 672.046 562.522C678.644 549.456 688.018 538.788 700.17 530.52C717.526 521.502 735.628 514.391 754.476 509.185C782.367 498.103 802.732 479.029 815.571 451.969C821.595 438.422 826.444 424.523 830.118 410.269C851.067 404.551 872.401 401.642 894.122 401.542C903.819 401.542 913.517 401.542 923.215 401.542C923.215 391.198 923.215 380.853 923.215 370.509C924.844 358.176 926.783 345.893 929.034 333.658C946.343 278.684 979.315 235.691 1027.95 204.68C1042.35 197.484 1057.22 191.342 1072.56 186.254C1087.36 154.644 1111.28 133.309 1144.32 122.25C1192.57 110.717 1235.24 121.061 1272.33 153.282C1321.16 201.794 1352.84 259.979 1367.37 327.839C1371.38 340.906 1373.97 354.483 1375.12 368.569C1378.08 391.77 1379.37 415.366 1379 439.362C1379 456.184 1378.36 472.669 1377.06 488.82C1376.72 512.752 1376.08 536.672 1375.12 560.582C1373.23 566.643 1372.58 573.108 1373.19 579.978C1373.82 606.829 1373.18 633.334 1371.25 659.498C1367.37 621.458 1365.43 583.315 1365.43 545.066C1365.75 493.341 1365.43 441.621 1364.46 389.904C1363.93 380.111 1362.96 370.414 1361.55 360.811C1360.25 351.113 1358.96 341.416 1357.67 331.718C1347.03 287.157 1328.93 245.781 1303.36 207.588C1298.88 199.194 1293.06 192.082 1285.91 186.254C1291.1 194.084 1296.28 201.842 1301.42 209.528C1338.9 272.792 1357 341.323 1355.73 415.118C1352.01 455.057 1335.85 488.998 1307.24 516.943C1295.53 525.056 1283.25 531.521 1270.39 536.338C1307.23 506.986 1328.24 468.519 1333.42 420.936C1338.42 344.028 1312.24 280.348 1254.87 229.893C1195.41 188.205 1132.7 183.032 1066.74 214.377C990.053 255.159 949.323 318.842 944.55 405.42C944.551 420.97 945.197 436.486 946.489 451.969C947.973 457.004 948.62 462.177 948.429 467.485C952.47 473.887 955.058 481 956.187 488.82C957.369 490.548 958.015 492.487 958.126 494.638C960.265 502.391 963.497 509.503 967.824 515.973C968.276 519.003 969.569 521.588 971.703 523.731C972.812 526.588 974.428 529.176 976.552 531.489C975.871 520.614 975.549 509.625 975.582 498.517C975.266 493.946 975.588 489.421 976.552 484.941C979.137 490.113 981.724 495.284 984.31 500.457C987.956 536.173 1000.24 568.498 1021.16 597.433C1040.95 623.047 1063.91 645.351 1090.01 664.347C1096.7 668.084 1103.81 670.672 1111.35 672.105C1099.49 673.54 1088.82 670.631 1079.35 663.377C1077.83 695.234 1062.64 717.539 1033.77 730.291C1022.4 734.102 1010.76 736.687 998.857 738.049C967.179 738.695 935.498 739.342 903.82 739.988C886.147 742.632 869.985 749.096 855.331 759.383C829.621 783.296 807.317 810.127 788.418 839.874C761.91 880.604 735.405 921.334 708.898 962.064C698.337 979.96 688.317 998.062 678.835 1016.37C650.657 1062.49 630.938 1112.27 619.679 1165.71C617.903 1182.71 618.872 1199.52 622.589 1216.14C676.932 1179.81 736.41 1156.22 801.025 1145.35C842.162 1138.91 883.538 1135.04 925.154 1133.71C993.672 1131.16 1062.2 1129.86 1130.74 1129.83C1140.63 1139.3 1152.27 1145.77 1165.66 1149.23C1221.54 1165.14 1277.14 1182.28 1332.46 1200.63C1323.48 1190.68 1314.1 1180.98 1304.33 1171.53C1281.79 1134.1 1250.44 1107.27 1210.27 1091.04C1175.92 1077.91 1140.36 1072.41 1103.59 1074.56C1000.15 1077.34 896.704 1080.25 793.267 1083.29C752.657 1084.96 714.514 1094.65 678.835 1112.38C706.031 1088.44 737.709 1073.9 773.872 1068.74C802.984 1027.31 832.077 985.929 861.151 944.609C862.545 941.085 864.485 939.791 866.969 940.73C864.471 945.072 862.531 949.597 861.151 954.306C856.969 962.061 855.353 970.465 856.302 979.52C858.387 972.938 860.65 966.471 863.09 960.125C871.907 939.256 883.222 919.861 897.031 901.939C893.005 915.316 889.772 928.893 887.334 942.669C904.164 921.814 925.82 909.853 952.308 906.788C901.351 931.467 869.025 971.227 855.332 1026.07C853.87 1035.69 853.224 1045.39 853.393 1055.16C867.615 1055.16 881.84 1055.16 896.062 1055.16C970.387 1052.9 1044.74 1050.96 1119.11 1049.34C1167.04 1048.83 1211.65 1060.79 1252.94 1085.22C1268.6 1094.43 1281.86 1106.38 1292.7 1121.11C1293.42 1113.91 1296.01 1107.44 1300.45 1101.71C1316 1085.42 1335.08 1076.37 1357.67 1074.56C1358.03 1062.17 1357.06 1049.88 1354.76 1037.71C1342.33 1001.81 1322.61 970.779 1295.6 944.609C1345.18 970.971 1372.33 1012.35 1377.06 1068.74C1387.19 1068.67 1396.89 1066.73 1406.16 1062.92C1385.72 1029.87 1368.27 995.279 1353.79 959.155C1354.11 958.186 1354.44 957.216 1354.76 956.246C1355.3 958.023 1356.27 959.315 1357.67 960.125C1378.85 992.645 1400.51 1024.97 1422.64 1057.1C1423.61 1058.07 1424.58 1059.04 1425.55 1060.01C1433.93 1060.98 1442.34 1061.3 1450.77 1060.98C1439.65 986.12 1421.55 913.066 1396.46 841.813C1386.97 841.751 1377.92 840.458 1369.31 837.934C1360.68 836.586 1352.28 834.323 1344.09 831.146C1322.37 819.751 1301.68 806.82 1282.03 792.355C1270.15 784.512 1257.21 780.633 1243.24 780.718C1220.61 790.567 1197.34 797.355 1173.41 801.083C1170.12 801.393 1166.88 801.071 1163.72 800.113C1185.34 790.914 1206.68 781.217 1227.72 771.021C1238.06 769.727 1248.41 769.727 1258.75 771.021C1291.57 784.2 1323.9 798.422 1355.73 813.69C1373.49 819.179 1391.59 823.058 1410.04 825.327C1430.64 873.045 1445.51 922.503 1454.65 973.701C1454.25 979.51 1455.54 984.683 1458.52 989.217C1464.03 1012.24 1468.56 1035.52 1472.1 1059.04C1515.42 1056.87 1558.73 1056.54 1602.05 1058.07C1600.18 1054.72 1598.89 1051.17 1598.17 1047.4C1563.95 989.321 1530.65 930.488 1498.28 870.905C1486.01 850.572 1473.4 830.53 1460.46 810.78C1448.36 793.193 1432.85 779.294 1413.91 769.08C1382.54 752.422 1350.86 736.26 1318.88 720.592C1305.19 713.404 1290.97 712.112 1276.21 716.713C1237.29 732.359 1202.38 754.34 1171.47 782.657C1162.09 787.888 1153.04 793.383 1144.32 799.143C1141.71 800.167 1139.12 800.491 1136.56 800.113C1153.57 781.639 1171.03 763.535 1188.93 745.806C1202.87 732.705 1218.39 722.038 1235.48 713.804C1237.85 712.54 1239.15 710.276 1239.36 707.016C1239.33 704.33 1238.68 702.068 1237.42 700.227C1234.68 661.955 1235.01 623.81 1238.39 585.795C1218.47 612.825 1194.23 635.129 1165.66 652.709C1164.36 654.003 1163.07 654.003 1161.78 652.709C1189.59 630.994 1213.19 605.458 1232.57 576.098C1250.7 547.55 1257.81 516.517 1253.9 483C1244.63 436.027 1225.89 393.357 1197.66 354.991C1196.36 353.698 1196.36 352.406 1197.66 351.113C1216.8 370.246 1232.96 391.581 1246.15 415.117C1265.66 447.401 1274.07 482.312 1271.36 519.851C1255.31 579.649 1250.46 640.42 1256.81 702.166C1264.3 700.367 1271.42 697.457 1278.15 693.439C1296.87 689.032 1314.97 690.972 1332.46 699.257C1368.54 716.003 1403.45 734.753 1437.19 755.504C1453.98 768.673 1467.55 783.22 1477.92 799.143C1461.3 754.245 1443.52 709.636 1424.58 665.316C1392.84 581.99 1395.1 499.884 1431.37 418.996C1432.43 414.937 1434.04 411.058 1436.22 407.359C1435.63 418.909 1435.31 430.546 1435.25 442.27C1437.19 453.898 1439.13 465.535 1441.07 477.182C1444.37 483.852 1446.96 490.962 1448.83 498.516C1454.38 514.153 1461.49 529.023 1470.16 543.125C1475.19 555.143 1481.65 566.134 1489.56 576.097C1496.56 589.546 1504.32 602.475 1512.83 614.888C1518.19 624.975 1524.01 634.673 1530.29 643.981C1536.11 656.919 1541.93 669.85 1547.74 682.771C1555.98 703.274 1560.51 724.609 1561.32 746.776C1561.32 759.058 1561.32 771.343 1561.32 783.627C1558.37 794.849 1556.43 806.486 1555.5 818.538C1550.02 837.196 1544.2 855.944 1538.04 874.784C1534.67 877.925 1533.7 881.804 1535.14 886.422C1548.55 911.322 1562.45 935.889 1576.83 960.123C1590.87 932.881 1601.86 904.434 1609.81 874.784C1614.75 857.389 1619.27 839.933 1623.38 822.417C1625.08 814.733 1626.37 806.975 1627.26 799.143C1631.23 779.286 1633.82 759.243 1635.02 739.018C1637.39 699.92 1637.39 661.13 1635.02 622.646C1635.5 608.858 1634.21 595.281 1631.14 581.916C1631.53 577.165 1630.89 572.639 1629.2 568.34C1626.75 546.287 1622.22 524.953 1615.63 504.335C1574.18 353.805 1492.72 229.997 1371.25 132.916C1249.3 42.4488 1111.92 -1.83627 959.096 0.0582946C804.031 3.46825 666 52.9258 545.008 148.432C525.649 164.251 507.546 181.383 490.701 199.829C446.538 245.286 409.041 295.714 378.208 351.113C348.14 403.792 326.805 460.039 314.204 519.851C307.638 543.089 303.76 567.009 302.567 591.614C299.312 601.443 298.021 611.789 298.688 622.646C295.136 667.842 297.076 713.099 304.506 758.415ZM1096.8 1000.85C1097.77 1011.18 1098.09 1021.52 1097.77 1031.89C1096.48 1028.65 1095.19 1025.42 1093.89 1022.19C1089.54 992.158 1079.2 964.359 1062.86 938.79C1079.27 955.336 1090.58 976.025 1096.8 1000.85ZM1001.77 322.021C1031.5 290.198 1066.74 266.923 1107.47 252.198C1110.13 251.894 1112.72 252.217 1115.23 253.168C1051.14 278.471 1002.98 321.463 970.734 382.146C976.385 359.856 986.731 339.814 1001.77 322.021ZM967.824 475.244C966.199 475.907 965.551 477.199 965.885 479.123C966.205 485.62 965.881 492.085 964.915 498.518C964.466 496.119 963.495 494.179 962.006 492.699C961.38 480.05 962.025 467.767 963.945 455.848C964.542 447.906 966.158 440.148 968.794 432.574C998.236 362.097 1048.99 314.255 1121.05 289.049C1122.34 289.049 1122.99 289.695 1122.99 290.988C1068.49 321.235 1024.2 362.611 990.129 415.118C977.888 433.416 970.454 453.457 967.824 475.244ZM1037.65 454.878C1029.73 451.277 1021.32 448.044 1012.43 445.181C1005.36 443.786 998.252 442.816 991.099 442.271C1008.68 437.751 1024.19 441.954 1037.65 454.878ZM1006.61 505.306C989.117 501.633 979.419 490.965 977.522 473.304C998.389 493.941 1023.6 502.023 1053.16 497.548C1038.24 503.867 1022.72 506.455 1006.61 505.306ZM1058.98 484.941C1059.63 484.941 1060.28 484.941 1060.92 484.941C1066.56 493.75 1070.11 503.448 1071.59 514.034C1072.04 528.35 1073.01 542.573 1074.5 556.704C1086.15 557.122 1097.79 557.122 1109.41 556.704C1101.26 558.376 1093.18 560.315 1085.17 562.522C1079.14 561.487 1073.64 559.547 1068.68 556.704C1065.87 555.474 1064.58 553.21 1064.8 549.915C1070.94 527.535 1069 505.877 1058.98 484.941ZM1090.01 587.736C1106.42 592.476 1123.22 595.386 1140.44 596.464C1125.27 600.75 1110.4 599.78 1095.83 593.555C1090.44 595.279 1085.27 597.542 1080.32 600.343C1074.73 602.038 1069.56 601.39 1064.8 598.404C1074.96 598.377 1083.36 594.821 1090.01 587.736ZM1066.74 608.101C1076.75 609.92 1086.78 612.182 1096.8 614.889C1107.68 612.853 1118.34 609.943 1128.8 606.162C1131.84 604.983 1134.43 603.365 1136.56 601.313C1138.6 601.024 1140.54 601.346 1142.38 602.282C1118.62 631.66 1093.41 633.6 1066.74 608.101ZM1190.87 487.85C1173.7 493.324 1156.24 494.294 1138.5 490.759C1135.92 489.466 1133.33 488.174 1130.74 486.88C1145.24 483.989 1160.11 481.725 1175.35 480.092C1193.14 475.078 1209.3 466.996 1223.84 455.848C1218.2 470.855 1207.21 481.522 1190.87 487.85ZM1204.45 423.846C1194.12 424.814 1183.78 425.138 1173.41 424.816C1156.86 427.011 1141.35 432.182 1126.86 440.332C1126.22 440.008 1125.57 439.686 1124.93 439.362C1134.84 430.204 1146.47 424.709 1159.84 422.876C1174.49 420.219 1189.36 420.544 1204.45 423.846ZM1270.39 356.932C1264.29 348.659 1258.15 340.255 1251.96 331.719C1250.67 330.425 1250.67 329.133 1251.96 327.84C1259.92 336.104 1266.71 345.156 1272.33 354.993C1286.06 374.843 1294.47 396.823 1297.54 420.937C1298.12 425.272 1297.47 429.151 1295.6 432.574C1291.46 405.916 1283.05 380.702 1270.39 356.932ZM511.065 673.075C517.541 694.589 519.481 716.569 516.884 739.019C512.538 759.025 507.043 778.42 500.398 797.205C500.276 781.396 498.012 765.88 493.61 750.656C472.921 707.986 452.234 665.317 431.545 622.647C424.811 603.417 418.67 584.022 413.119 564.462C411.184 556.108 410.213 547.704 410.21 539.248C423.61 559.438 438.804 578.188 455.789 595.494C479.193 617.909 497.619 643.769 511.065 673.075Z" fill="white"/>
<path d="M216.258 870.907C240.597 912.364 272.599 945.336 312.265 969.822C308.971 961.083 306.71 952.031 305.476 942.669C304.83 918.749 304.183 894.827 303.537 870.907C300.463 842.144 289.474 816.93 270.565 795.265C248.371 772.745 226.066 750.765 203.652 729.321C202.036 762.282 201.712 795.254 202.682 828.237C205.996 842.71 210.521 856.932 216.258 870.907Z" fill="white"/>
<path d="M1437.19 622.648C1457.39 675.174 1477.75 727.541 1498.28 779.749C1504.97 799.373 1510.14 819.415 1513.8 839.875C1514.01 809.267 1508.84 779.529 1498.28 750.657C1479.38 707.044 1459.01 664.375 1437.19 622.648Z" fill="white"/>
<path d="M700.17 760.354C671.49 768.196 642.397 774.338 612.891 778.78C589.935 786.224 570.216 798.831 553.736 816.6C531.146 844.964 514.66 876.644 504.278 911.637C502.433 908.885 501.787 905.654 502.338 901.94C502.338 898.061 502.338 894.182 502.338 890.303C503.632 886.424 504.924 882.545 506.218 878.665C510.269 851.467 517.057 824.96 526.583 799.145C537.029 771.883 556.1 754.103 583.799 745.808C611.156 744.288 638.309 741.057 665.259 736.11C725.083 719.917 767.107 683.388 791.328 626.527C792.381 626.411 793.027 625.765 793.268 624.588C791.004 623.942 788.743 623.294 786.479 622.648C773.927 624.301 761.319 624.949 748.658 624.588C729.725 622.806 710.977 619.896 692.412 615.86C682.069 614.566 671.723 614.566 661.38 615.86C637.347 622.542 616.334 634.503 598.345 651.741C589.941 662.732 581.535 673.722 573.131 684.713C556.764 715.73 541.893 747.408 528.522 779.75C514.616 812.749 505.24 847.013 500.399 882.545C498.914 887.58 498.267 892.752 498.459 898.061C495.926 907.983 494.632 918.326 494.58 929.093C492.85 938.671 492.202 948.368 492.641 958.186C492.445 978.264 493.092 998.305 494.58 1018.31C494.122 1024.34 494.768 1030.16 496.519 1035.77C497.714 1044.23 499.332 1052.64 501.368 1060.98C502.088 1046.39 501.118 1032.16 498.459 1018.31C498.135 996.321 498.459 974.339 499.429 952.368C507.283 924.295 525.061 905.222 552.766 895.152C586.449 888.262 616.836 874.686 643.923 854.422C669.572 826.645 688.321 795.289 700.17 760.354ZM676.896 665.317C680.827 665.003 684.706 665.327 688.533 666.287C671.522 670.863 654.712 676.035 638.105 681.803C622.246 689.732 606.729 697.49 591.557 705.077C616.815 684.916 645.26 671.663 676.896 665.317Z" fill="white"/>
<path d="M180.375 978.55C200.711 968.543 221.724 960.46 243.41 954.306C261.653 971.019 280.079 987.505 298.687 1003.76C263.036 994.069 227.479 994.714 192.013 1005.7C160.534 1023.27 132.089 1044.93 106.674 1070.68C127.462 1073.61 148.15 1077.16 168.739 1081.34C189.495 1082.85 210.184 1082.2 230.804 1079.41C259.19 1069.42 285.698 1055.84 310.324 1038.68C317.651 1035.5 325.086 1032.59 332.628 1029.95C344.376 1038.16 356.337 1045.92 368.51 1053.22C400.628 1076.08 434.892 1095.47 471.305 1111.41C477.181 1115.1 483.646 1117.69 490.7 1119.17C486.144 1115.59 480.973 1113.01 475.184 1111.41C466.093 1105.53 457.041 1099.71 448.03 1093.95C421.897 1079.92 396.683 1064.4 372.389 1047.4C290.215 990.461 217.806 922.577 155.162 843.753C115.801 793.139 64.0804 772.45 0 781.688C9.7495 794.347 19.1241 807.276 28.1229 820.478C40.4634 837.998 56.3023 851.251 75.6411 860.239C105.894 869.556 136.926 873.435 168.738 871.876C186.481 892.53 204.582 912.895 223.045 932.971C222.721 933.617 222.399 934.264 222.075 934.91C190.3 915.115 155.712 907.679 118.311 912.605C85.6422 921.985 55.2561 936.208 27.1532 955.275C50.3487 961.377 72.9763 969.135 95.0364 978.55C123.454 987.346 151.901 987.346 180.375 978.55Z" fill="white"/>
<path d="M416.997 937.82C396.308 924.89 375.621 911.96 354.932 899.03C352.585 897.015 350.646 894.751 349.113 892.242C347.255 891.363 345.637 890.071 344.264 888.362C343.317 915.363 346.227 941.868 352.992 967.883C355.753 971.791 357.045 976.316 356.871 981.459C372.672 1016.36 397.24 1043.83 430.572 1063.89C443.505 1069.79 455.788 1076.58 467.424 1084.25C471.962 1085.39 476.164 1087.33 480.03 1090.07C471.481 1060.31 464.371 1029.92 458.696 998.915C450.977 974.379 437.078 954.014 416.997 937.82Z" fill="white"/>
<path d="M552.764 972.732C544.562 992.17 537.126 1011.89 530.46 1031.89C525.622 1050.47 524.652 1069.22 527.55 1088.13C530.624 1107.41 539.031 1123.89 552.764 1137.59C577.741 1145.1 592.288 1161.59 596.404 1187.05C597.466 1172.82 598.436 1158.6 599.313 1144.38C601.38 1127.26 603.32 1110.13 605.131 1092.98C604.963 1077.27 602.054 1062.08 596.404 1047.4C582.845 1021.9 569.592 996.361 556.644 970.793C554.737 969.646 553.443 970.294 552.764 972.732Z" fill="white"/>
<path d="M1379 1089.1C1360.06 1092.19 1341.95 1098 1324.69 1106.56C1313.95 1113.97 1310.39 1123.99 1314.03 1136.62C1320.49 1156.29 1330.51 1173.74 1344.09 1188.99C1356.6 1200.75 1370.82 1210.13 1386.76 1217.11C1474.21 1250.35 1564.72 1262.96 1658.29 1254.93C1699.48 1228.94 1730.83 1194.02 1752.36 1150.2C1757.21 1138.65 1757.85 1127.01 1754.3 1115.29C1745.15 1106.04 1734.49 1099.58 1722.3 1095.89C1701.16 1090.97 1679.82 1087.09 1658.29 1084.25C1630.81 1082.78 1603.66 1080.84 1576.83 1078.44C1510.59 1076.75 1444.64 1080.31 1379 1089.1ZM1617.56 1163.78C1552.06 1170.09 1486.76 1168.8 1421.67 1159.9C1421.67 1159.25 1421.67 1158.6 1421.67 1157.96C1435.24 1158.72 1448.82 1159.37 1462.4 1159.9C1473.02 1161.81 1484.01 1162.46 1495.37 1161.84C1532.8 1164.09 1570.3 1164.09 1607.86 1161.84C1621.06 1159.08 1634.64 1158.11 1648.6 1158.93C1638.33 1161.18 1627.99 1162.79 1617.56 1163.78ZM1679.63 1101.71C1697.27 1103.61 1714.08 1108.45 1730.05 1116.26C1738.8 1126.74 1736.21 1133.52 1722.3 1136.62C1719.22 1134.73 1717.28 1131.82 1716.48 1127.89C1697.95 1119.53 1678.55 1115.65 1658.29 1116.26C1666.47 1117.65 1674.23 1120.24 1681.57 1124.02C1683.65 1127.36 1683.98 1130.92 1682.54 1134.68C1671.42 1139.31 1660.11 1142.55 1648.59 1144.38C1643.93 1144.28 1639.41 1144.92 1635.02 1146.32C1593.07 1149.58 1551.05 1150.87 1508.95 1150.2C1488.73 1150.87 1468.68 1149.58 1448.82 1146.32C1439.29 1146.59 1430.24 1145.3 1421.67 1142.44C1419.08 1142.44 1416.5 1142.44 1413.91 1142.44C1405.02 1140.23 1396.29 1136.99 1387.73 1132.74C1386.43 1130.8 1386.43 1128.86 1387.73 1126.92C1394.18 1121.53 1401.62 1117.97 1410.03 1116.26C1392.79 1115.73 1375.98 1118.32 1359.61 1124.02C1354.31 1127.27 1350.43 1131.47 1347.97 1136.62C1332.76 1132.36 1330.82 1124.92 1342.15 1114.32C1360.73 1106.26 1380.13 1101.09 1400.34 1098.8C1467.36 1090.28 1534.6 1088.01 1602.05 1092.01C1627.67 1094.97 1653.53 1098.2 1679.63 1101.71Z" fill="white"/>
<path d="M1464.34 1117.23C1460.34 1117.59 1456.46 1118.56 1452.7 1120.14C1488.9 1121.11 1525.11 1121.43 1561.32 1121.11C1574.25 1121.11 1587.18 1121.11 1600.11 1121.11C1566.82 1123.9 1533.2 1126.16 1499.25 1127.89C1535.4 1131.52 1571.61 1131.52 1607.87 1127.89C1615.92 1127.15 1623.68 1125.21 1631.14 1122.08C1626.92 1119.74 1622.39 1118.77 1617.56 1119.17C1566.6 1110.02 1515.52 1109.37 1464.34 1117.23Z" fill="white"/>
<path d="M610.951 1299.54C602.319 1295.44 593.268 1292.53 583.797 1290.81C594.376 1284.76 603.103 1276.68 609.981 1266.57C616.347 1247.29 610.206 1233.39 591.555 1224.87C579.589 1220.1 567.306 1216.22 554.704 1213.23C572.096 1205.61 577.59 1193 571.19 1175.41C555.722 1160.98 537.297 1152.89 515.913 1151.17C495.781 1149.65 475.74 1149.97 455.788 1152.14C442.347 1152.96 430.062 1156.84 418.937 1163.77C402.752 1172.17 399.197 1184.46 408.27 1200.63C412.602 1204.89 417.451 1208.45 422.816 1211.29C408.535 1214.55 394.959 1219.72 382.086 1226.81C364.797 1236.22 359.948 1250.12 367.54 1268.51C373.773 1277.98 381.855 1285.41 391.784 1290.81C370.306 1293.77 354.141 1304.44 343.296 1322.82C339.706 1336.08 341.969 1348.36 350.084 1359.67C366.766 1376.72 386.485 1388.36 409.24 1394.58C469.811 1406.34 529.936 1404.4 589.616 1388.76C588.013 1376.52 586.72 1364.24 585.736 1351.91C584.338 1329.5 592.745 1312.04 610.951 1299.54ZM416.998 1181.23C416.744 1179.53 417.39 1178.24 418.938 1177.35C422.46 1181.85 426.339 1186.05 430.575 1189.96C430.133 1190.73 429.485 1191.05 428.635 1190.93C422.367 1190.4 418.488 1187.17 416.998 1181.23ZM363.661 1336.39C361.999 1330.48 363.293 1325.3 367.54 1320.88C370.546 1333.91 378.626 1342.31 391.784 1346.09C391.121 1347.72 389.829 1348.36 387.906 1348.03C378.438 1347.01 370.356 1343.13 363.661 1336.39ZM391.784 1257.84C384.383 1252.15 384.059 1246.01 390.815 1239.42C393.673 1247.45 399.168 1252.94 407.3 1255.9C422.275 1261.91 437.791 1265.46 453.849 1266.57C451.097 1268.41 447.865 1269.06 444.151 1268.51C425.897 1268.63 408.441 1265.07 391.784 1257.84Z" fill="white"/>
<path d="M384.028 1196.75C379.135 1171.29 388.187 1152.22 411.181 1139.53C422.272 1133.66 433.909 1129.45 446.093 1126.92C455.232 1123.71 464.929 1122.1 475.186 1122.08C435.139 1105.71 393.761 1094.07 351.056 1087.16C299.713 1080.59 253.164 1092.23 211.41 1122.08C170.267 1161.28 134.062 1204.6 102.797 1252.02C117.526 1246.4 133.042 1242.52 149.345 1240.39C172.62 1239.09 195.894 1239.09 219.168 1240.39C224.725 1240.74 229.896 1241.71 234.684 1243.3C269.621 1247.96 303.887 1245.05 337.479 1234.57C349.857 1217.76 365.373 1205.16 384.028 1196.75ZM201.713 1205.48C255.608 1181.09 310.563 1160.08 366.572 1142.44C369.236 1142.14 371.823 1142.46 374.33 1143.41C319.36 1171.43 261.821 1192.12 201.713 1205.48Z" fill="white"/>
<path d="M991.095 1260.75C999.768 1264.21 1008.82 1266.47 1018.25 1267.54C1011 1264.81 1003.89 1261.9 996.914 1258.81C918.867 1226.35 838.053 1216 754.473 1227.78C756.412 1231.66 758.351 1235.54 760.291 1239.42C837.952 1237.54 914.885 1244.65 991.095 1260.75Z" fill="white"/>
<path d="M740.899 1235.54C735.879 1248.32 731.03 1261.25 726.353 1274.33C722.045 1289.43 722.69 1304.3 728.292 1318.94C736.213 1331.23 745.263 1331.88 755.445 1320.88C760.484 1312.87 762.747 1304.14 762.234 1294.69C759.726 1273.21 752.614 1253.5 740.899 1235.54Z" fill="white"/>
<path d="M649.738 1264.63C637.259 1273.6 637.905 1274.24 651.678 1266.57C673.453 1257.17 696.082 1250.71 719.561 1247.18C719.187 1241.41 721.126 1236.56 725.38 1232.63C698.075 1237.86 672.861 1248.53 649.738 1264.63Z" fill="white"/>
<path d="M1706.78 1256.87C1667.25 1276.75 1625.22 1287.41 1580.71 1288.87C1512.92 1292.89 1446.33 1285.78 1380.94 1267.54C1291.36 1240.27 1201.5 1213.76 1111.35 1188.02C1031.12 1167.62 949.66 1159.22 866.965 1162.81C828.471 1164.91 790.974 1172.02 754.473 1184.14C827.664 1177.72 900.074 1182.9 971.7 1199.66C1012.56 1210.71 1053.3 1222.35 1093.89 1234.57C1182.26 1265.5 1270.83 1295.88 1359.6 1325.73C1395.19 1335.49 1431.4 1341.64 1468.22 1344.15C1524.08 1347.48 1578.39 1340.05 1631.14 1321.85C1687.89 1299.28 1733.47 1263.4 1767.87 1214.2C1749.35 1231.12 1728.98 1245.34 1706.78 1256.87Z" fill="white"/>
<path d="M1080.32 1295.66C1069.55 1295.71 1059.21 1297.01 1049.28 1299.54C997.966 1305.58 948.832 1319.48 901.88 1341.24C900.305 1353.04 899.335 1365 898.971 1377.12C894.777 1402.64 884.11 1424.94 866.969 1444.04C933.805 1396.43 1008.15 1365.72 1090.01 1351.91C1093.92 1349.15 1098.45 1347.85 1103.59 1348.03C1196.93 1333.12 1288.73 1338.61 1379 1364.52C1285.72 1314.69 1186.16 1291.74 1080.32 1295.66Z" fill="white"/>
<path d="M879.574 1330.57C876.746 1325.8 873.191 1321.6 868.906 1317.97C840.447 1302.93 810.061 1294.85 777.749 1293.72C777.749 1298.25 777.749 1302.77 777.749 1307.3C801.651 1309.04 824.926 1313.89 847.572 1321.85C853.59 1324.64 859.085 1328.19 864.058 1332.51C866.678 1344.82 861.829 1352.9 849.511 1356.76C816.151 1369.57 781.564 1375.71 745.747 1375.18C706.966 1376.67 669.793 1369.88 634.224 1354.82C619.774 1345.95 619.127 1336.26 632.285 1325.72C656.203 1314.28 681.417 1308.14 707.927 1307.3C707.927 1302.13 707.927 1296.96 707.927 1291.78C705.341 1291.78 702.754 1291.78 700.168 1291.78C678.81 1296.13 657.476 1301.63 636.164 1308.27C623.087 1313.3 613.714 1322.03 608.041 1334.45C605.052 1375.97 618.953 1410.56 649.741 1438.22C695.349 1467.54 744.483 1474.65 797.145 1459.55C858.997 1438.99 886.475 1395.99 879.574 1330.57Z" fill="white"/>
<path d="M688.531 1360.64C694.848 1362.66 701.312 1363.63 707.926 1363.55C731.839 1366.09 755.759 1366.09 779.689 1363.55C786.904 1363.42 794.014 1362.45 801.023 1360.64C763.527 1359.34 726.028 1359.34 688.531 1360.64Z" fill="white"/>
<path d="M1862.1 333H2043V963H1862.1V333ZM2097.9 963H1980.9V810H2090.7C2111.7 810 2132.1 807.9 2151.9 803.7C2172.3 798.9 2190.6 790.8 2206.8 779.4C2223 767.4 2235.9 750.9 2245.5 729.9C2255.7 708.3 2260.8 681 2260.8 648C2260.8 615 2255.7 588 2245.5 567C2235.9 545.4 2223 528.9 2206.8 517.5C2190.6 505.5 2172.3 497.4 2151.9 493.2C2132.1 488.4 2111.7 486 2090.7 486H1980.9V333H2097.9C2169.3 333 2230.5 345.9 2281.5 371.7C2333.1 396.9 2372.7 432.9 2400.3 479.7C2428.5 526.5 2442.6 582.6 2442.6 648C2442.6 712.8 2428.5 768.9 2400.3 816.3C2372.7 863.1 2333.1 899.4 2281.5 925.2C2230.5 950.4 2169.3 963 2097.9 963ZM2536.22 333H2714.42V963H2536.22V333ZM3119.24 675.9L3257.84 333H3463.04L3119.24 1005.3L2776.34 333H2981.54L3119.24 675.9ZM3546.04 861.3L3551.44 732.6H3874.54L3879.04 861.3H3546.04ZM3710.74 591.3L3627.94 780.3L3638.74 819L3565.84 963H3367.84L3710.74 290.7L4054.54 963H3856.54L3784.54 825.3L3794.44 780.3L3710.74 591.3Z" fill="white"/>
<path d="M1853.76 1124.25V1092H1983.76V1124.25H1936.51V1267H1900.76V1124.25H1853.76ZM2059.82 1072V1267H2027.32V1072H2059.82ZM2101.57 1197C2101.57 1189.33 2100.07 1183.5 2097.07 1179.5C2094.24 1175.5 2089.4 1173.5 2082.57 1173.5C2078.07 1173.5 2074.07 1174.5 2070.57 1176.5C2067.07 1178.33 2064.4 1181 2062.57 1184.5C2060.74 1188 2059.82 1192.17 2059.82 1197H2053.32C2053.32 1187.83 2054.82 1179.58 2057.82 1172.25C2060.99 1164.92 2065.65 1159.08 2071.82 1154.75C2077.99 1150.42 2085.57 1148.25 2094.57 1148.25C2103.57 1148.25 2110.99 1149.92 2116.82 1153.25C2122.65 1156.58 2126.99 1161.58 2129.82 1168.25C2132.65 1174.75 2134.07 1182.75 2134.07 1192.25V1267H2101.57V1197ZM2215.24 1231.25C2215.24 1234.58 2216.07 1237.5 2217.74 1240C2219.41 1242.33 2221.66 1244.17 2224.49 1245.5C2227.49 1246.67 2230.74 1247.25 2234.24 1247.25C2239.24 1247.25 2243.74 1246.25 2247.74 1244.25C2251.74 1242.08 2254.99 1239.08 2257.49 1235.25C2259.99 1231.25 2261.24 1226.5 2261.24 1221L2265.24 1236C2265.24 1243.33 2263.16 1249.5 2258.99 1254.5C2254.99 1259.5 2249.74 1263.25 2243.24 1265.75C2236.91 1268.25 2230.24 1269.5 2223.24 1269.5C2216.07 1269.5 2209.41 1268.08 2203.24 1265.25C2197.07 1262.42 2192.07 1258.33 2188.24 1253C2184.57 1247.5 2182.74 1240.83 2182.74 1233C2182.74 1221.83 2186.66 1213 2194.49 1206.5C2202.32 1200 2213.41 1196.75 2227.74 1196.75C2235.07 1196.75 2241.49 1197.5 2246.99 1199C2252.66 1200.5 2257.41 1202.33 2261.24 1204.5C2265.07 1206.67 2267.82 1208.75 2269.49 1210.75V1225.75C2264.99 1222.42 2259.91 1219.92 2254.24 1218.25C2248.74 1216.58 2242.91 1215.75 2236.74 1215.75C2231.74 1215.75 2227.66 1216.42 2224.49 1217.75C2221.32 1218.92 2218.99 1220.67 2217.49 1223C2215.99 1225.17 2215.24 1227.92 2215.24 1231.25ZM2202.74 1184.5L2190.74 1162.5C2196.74 1159.33 2204.07 1156.33 2212.74 1153.5C2221.41 1150.5 2231.07 1149 2241.74 1149C2251.57 1149 2260.32 1150.42 2267.99 1153.25C2275.66 1156.08 2281.66 1160.25 2285.99 1165.75C2290.32 1171.08 2292.49 1177.67 2292.49 1185.5V1267H2261.24V1192.25C2261.24 1189.08 2260.74 1186.42 2259.74 1184.25C2258.74 1181.92 2257.16 1180 2254.99 1178.5C2252.99 1177 2250.57 1175.92 2247.74 1175.25C2244.91 1174.58 2241.74 1174.25 2238.24 1174.25C2232.91 1174.25 2227.82 1174.83 2222.99 1176C2218.16 1177.17 2213.99 1178.58 2210.49 1180.25C2206.99 1181.92 2204.41 1183.33 2202.74 1184.5ZM2347.36 1107.5C2347.36 1102.17 2349.28 1097.83 2353.11 1094.5C2356.94 1091 2361.53 1089.25 2366.86 1089.25C2372.19 1089.25 2376.69 1091 2380.36 1094.5C2384.19 1097.83 2386.11 1102.17 2386.11 1107.5C2386.11 1112.67 2384.19 1117 2380.36 1120.5C2376.69 1124 2372.19 1125.75 2366.86 1125.75C2361.53 1125.75 2356.94 1124 2353.11 1120.5C2349.28 1117 2347.36 1112.67 2347.36 1107.5ZM2350.86 1152H2382.36V1267H2350.86V1152ZM2585.68 1168.75L2574.43 1267H2537.18L2563.18 1083.25L2636.43 1196.25L2709.68 1083.25L2735.68 1267H2698.43L2687.18 1168.75L2636.43 1250.75L2585.68 1168.75ZM2809.99 1231.25C2809.99 1234.58 2810.82 1237.5 2812.49 1240C2814.15 1242.33 2816.4 1244.17 2819.24 1245.5C2822.24 1246.67 2825.49 1247.25 2828.99 1247.25C2833.99 1247.25 2838.49 1246.25 2842.49 1244.25C2846.49 1242.08 2849.74 1239.08 2852.24 1235.25C2854.74 1231.25 2855.99 1226.5 2855.99 1221L2859.99 1236C2859.99 1243.33 2857.9 1249.5 2853.74 1254.5C2849.74 1259.5 2844.49 1263.25 2837.99 1265.75C2831.65 1268.25 2824.99 1269.5 2817.99 1269.5C2810.82 1269.5 2804.15 1268.08 2797.99 1265.25C2791.82 1262.42 2786.82 1258.33 2782.99 1253C2779.32 1247.5 2777.49 1240.83 2777.49 1233C2777.49 1221.83 2781.4 1213 2789.24 1206.5C2797.07 1200 2808.15 1196.75 2822.49 1196.75C2829.82 1196.75 2836.24 1197.5 2841.74 1199C2847.4 1200.5 2852.15 1202.33 2855.99 1204.5C2859.82 1206.67 2862.57 1208.75 2864.24 1210.75V1225.75C2859.74 1222.42 2854.65 1219.92 2848.99 1218.25C2843.49 1216.58 2837.65 1215.75 2831.49 1215.75C2826.49 1215.75 2822.4 1216.42 2819.24 1217.75C2816.07 1218.92 2813.74 1220.67 2812.24 1223C2810.74 1225.17 2809.99 1227.92 2809.99 1231.25ZM2797.49 1184.5L2785.49 1162.5C2791.49 1159.33 2798.82 1156.33 2807.49 1153.5C2816.15 1150.5 2825.82 1149 2836.49 1149C2846.32 1149 2855.07 1150.42 2862.74 1153.25C2870.4 1156.08 2876.4 1160.25 2880.74 1165.75C2885.07 1171.08 2887.24 1177.67 2887.24 1185.5V1267H2855.99V1192.25C2855.99 1189.08 2855.49 1186.42 2854.49 1184.25C2853.49 1181.92 2851.9 1180 2849.74 1178.5C2847.74 1177 2845.32 1175.92 2842.49 1175.25C2839.65 1174.58 2836.49 1174.25 2832.99 1174.25C2827.65 1174.25 2822.57 1174.83 2817.74 1176C2812.9 1177.17 2808.74 1178.58 2805.24 1180.25C2801.74 1181.92 2799.15 1183.33 2797.49 1184.5ZM2949.36 1227.25C2954.19 1231.75 2958.69 1235.42 2962.86 1238.25C2967.02 1240.92 2970.94 1242.92 2974.61 1244.25C2978.44 1245.58 2982.02 1246.25 2985.36 1246.25C2989.69 1246.25 2993.02 1245.33 2995.36 1243.5C2997.69 1241.5 2998.86 1238.83 2998.86 1235.5C2998.86 1232.5 2997.86 1230 2995.86 1228C2994.02 1225.83 2991.27 1223.92 2987.61 1222.25C2983.94 1220.58 2979.27 1218.83 2973.61 1217C2968.27 1215 2963.11 1212.67 2958.11 1210C2953.11 1207.17 2948.94 1203.5 2945.61 1199C2942.44 1194.33 2940.86 1188.42 2940.86 1181.25C2940.86 1174.42 2942.69 1168.67 2946.36 1164C2950.02 1159.17 2954.94 1155.58 2961.11 1153.25C2967.44 1150.75 2974.44 1149.5 2982.11 1149.5C2988.61 1149.5 2994.69 1150.33 3000.36 1152C3006.02 1153.67 3011.27 1155.92 3016.11 1158.75C3020.94 1161.42 3025.19 1164.58 3028.86 1168.25L3014.61 1188.25C3010.44 1183.75 3005.44 1180.08 2999.61 1177.25C2993.94 1174.42 2988.36 1173 2982.86 1173C2979.19 1173 2976.27 1173.75 2974.11 1175.25C2972.11 1176.58 2971.11 1178.67 2971.11 1181.5C2971.11 1184 2972.11 1186.25 2974.11 1188.25C2976.27 1190.08 2979.27 1191.75 2983.11 1193.25C2987.11 1194.75 2991.61 1196.58 2996.61 1198.75C3002.77 1201.08 3008.44 1203.75 3013.61 1206.75C3018.94 1209.58 3023.19 1213.17 3026.36 1217.5C3029.52 1221.83 3031.11 1227.5 3031.11 1234.5C3031.11 1246 3027.36 1255 3019.86 1261.5C3012.36 1267.83 3002.02 1271 2988.86 1271C2980.69 1271 2973.19 1269.92 2966.36 1267.75C2959.69 1265.58 2953.61 1262.75 2948.11 1259.25C2942.77 1255.58 2937.94 1251.67 2933.61 1247.5L2949.36 1227.25ZM3085.47 1227.25C3090.3 1231.75 3094.8 1235.42 3098.97 1238.25C3103.14 1240.92 3107.05 1242.92 3110.72 1244.25C3114.55 1245.58 3118.14 1246.25 3121.47 1246.25C3125.8 1246.25 3129.14 1245.33 3131.47 1243.5C3133.8 1241.5 3134.97 1238.83 3134.97 1235.5C3134.97 1232.5 3133.97 1230 3131.97 1228C3130.14 1225.83 3127.39 1223.92 3123.72 1222.25C3120.05 1220.58 3115.39 1218.83 3109.72 1217C3104.39 1215 3099.22 1212.67 3094.22 1210C3089.22 1207.17 3085.05 1203.5 3081.72 1199C3078.55 1194.33 3076.97 1188.42 3076.97 1181.25C3076.97 1174.42 3078.8 1168.67 3082.47 1164C3086.14 1159.17 3091.05 1155.58 3097.22 1153.25C3103.55 1150.75 3110.55 1149.5 3118.22 1149.5C3124.72 1149.5 3130.8 1150.33 3136.47 1152C3142.14 1153.67 3147.39 1155.92 3152.22 1158.75C3157.05 1161.42 3161.3 1164.58 3164.97 1168.25L3150.72 1188.25C3146.55 1183.75 3141.55 1180.08 3135.72 1177.25C3130.05 1174.42 3124.47 1173 3118.97 1173C3115.3 1173 3112.39 1173.75 3110.22 1175.25C3108.22 1176.58 3107.22 1178.67 3107.22 1181.5C3107.22 1184 3108.22 1186.25 3110.22 1188.25C3112.39 1190.08 3115.39 1191.75 3119.22 1193.25C3123.22 1194.75 3127.72 1196.58 3132.72 1198.75C3138.89 1201.08 3144.55 1203.75 3149.72 1206.75C3155.05 1209.58 3159.3 1213.17 3162.47 1217.5C3165.64 1221.83 3167.22 1227.5 3167.22 1234.5C3167.22 1246 3163.47 1255 3155.97 1261.5C3148.47 1267.83 3138.14 1271 3124.97 1271C3116.8 1271 3109.3 1269.92 3102.47 1267.75C3095.8 1265.58 3089.72 1262.75 3084.22 1259.25C3078.89 1255.58 3074.05 1251.67 3069.72 1247.5L3085.47 1227.25ZM3238.83 1231.25C3238.83 1234.58 3239.67 1237.5 3241.33 1240C3243 1242.33 3245.25 1244.17 3248.08 1245.5C3251.08 1246.67 3254.33 1247.25 3257.83 1247.25C3262.83 1247.25 3267.33 1246.25 3271.33 1244.25C3275.33 1242.08 3278.58 1239.08 3281.08 1235.25C3283.58 1231.25 3284.83 1226.5 3284.83 1221L3288.83 1236C3288.83 1243.33 3286.75 1249.5 3282.58 1254.5C3278.58 1259.5 3273.33 1263.25 3266.83 1265.75C3260.5 1268.25 3253.83 1269.5 3246.83 1269.5C3239.67 1269.5 3233 1268.08 3226.83 1265.25C3220.67 1262.42 3215.67 1258.33 3211.83 1253C3208.17 1247.5 3206.33 1240.83 3206.33 1233C3206.33 1221.83 3210.25 1213 3218.08 1206.5C3225.92 1200 3237 1196.75 3251.33 1196.75C3258.67 1196.75 3265.08 1197.5 3270.58 1199C3276.25 1200.5 3281 1202.33 3284.83 1204.5C3288.67 1206.67 3291.42 1208.75 3293.08 1210.75V1225.75C3288.58 1222.42 3283.5 1219.92 3277.83 1218.25C3272.33 1216.58 3266.5 1215.75 3260.33 1215.75C3255.33 1215.75 3251.25 1216.42 3248.08 1217.75C3244.92 1218.92 3242.58 1220.67 3241.08 1223C3239.58 1225.17 3238.83 1227.92 3238.83 1231.25ZM3226.33 1184.5L3214.33 1162.5C3220.33 1159.33 3227.67 1156.33 3236.33 1153.5C3245 1150.5 3254.67 1149 3265.33 1149C3275.17 1149 3283.92 1150.42 3291.58 1153.25C3299.25 1156.08 3305.25 1160.25 3309.58 1165.75C3313.92 1171.08 3316.08 1177.67 3316.08 1185.5V1267H3284.83V1192.25C3284.83 1189.08 3284.33 1186.42 3283.33 1184.25C3282.33 1181.92 3280.75 1180 3278.58 1178.5C3276.58 1177 3274.17 1175.92 3271.33 1175.25C3268.5 1174.58 3265.33 1174.25 3261.83 1174.25C3256.5 1174.25 3251.42 1174.83 3246.58 1176C3241.75 1177.17 3237.58 1178.58 3234.08 1180.25C3230.58 1181.92 3228 1183.33 3226.33 1184.5ZM3366.96 1275H3398.71C3398.87 1280 3400.21 1284.25 3402.71 1287.75C3405.21 1291.42 3408.62 1294.25 3412.96 1296.25C3417.29 1298.25 3422.37 1299.25 3428.21 1299.25C3433.54 1299.25 3438.54 1298 3443.21 1295.5C3448.04 1293 3451.87 1289.17 3454.71 1284C3457.71 1278.83 3459.21 1272.33 3459.21 1264.5V1152H3490.46V1264.5C3490.46 1278.67 3487.62 1290.33 3481.96 1299.5C3476.46 1308.67 3469.04 1315.33 3459.71 1319.5C3450.37 1323.83 3440.21 1326 3429.21 1326C3415.87 1326 3404.71 1323.83 3395.71 1319.5C3386.71 1315.33 3379.79 1309.33 3374.96 1301.5C3370.29 1293.83 3367.62 1285 3366.96 1275ZM3364.71 1208.5C3364.71 1195.67 3367.29 1184.92 3372.46 1176.25C3377.62 1167.42 3384.46 1160.75 3392.96 1156.25C3401.46 1151.75 3410.46 1149.5 3419.96 1149.5C3429.62 1149.5 3438.12 1151.83 3445.46 1156.5C3452.96 1161.17 3458.79 1167.92 3462.96 1176.75C3467.29 1185.42 3469.46 1196 3469.46 1208.5C3469.46 1220.83 3467.29 1231.42 3462.96 1240.25C3458.79 1249.08 3452.96 1255.83 3445.46 1260.5C3438.12 1265 3429.62 1267.25 3419.96 1267.25C3410.46 1267.25 3401.46 1265 3392.96 1260.5C3384.46 1256 3377.62 1249.42 3372.46 1240.75C3367.29 1231.92 3364.71 1221.17 3364.71 1208.5ZM3398.21 1208.5C3398.21 1215.33 3399.62 1221.17 3402.46 1226C3405.29 1230.67 3409.12 1234.25 3413.96 1236.75C3418.79 1239.25 3423.96 1240.5 3429.46 1240.5C3434.29 1240.5 3438.96 1239.33 3443.46 1237C3448.12 1234.5 3451.87 1230.92 3454.71 1226.25C3457.71 1221.42 3459.21 1215.5 3459.21 1208.5C3459.21 1203.17 3458.37 1198.5 3456.71 1194.5C3455.04 1190.5 3452.71 1187.17 3449.71 1184.5C3446.87 1181.83 3443.71 1179.83 3440.21 1178.5C3436.71 1177 3433.12 1176.25 3429.46 1176.25C3423.96 1176.25 3418.79 1177.5 3413.96 1180C3409.12 1182.5 3405.29 1186.17 3402.46 1191C3399.62 1195.67 3398.21 1201.5 3398.21 1208.5ZM3602.37 1269.5C3589.87 1269.5 3578.95 1267 3569.62 1262C3560.29 1257 3553.04 1250.08 3547.87 1241.25C3542.87 1232.25 3540.37 1221.67 3540.37 1209.5C3540.37 1197.17 3542.87 1186.58 3547.87 1177.75C3553.04 1168.75 3560.29 1161.83 3569.62 1157C3578.95 1152 3589.95 1149.5 3602.62 1149.5C3615.29 1149.5 3626.04 1151.83 3634.87 1156.5C3643.87 1161 3650.7 1167.67 3655.37 1176.5C3660.04 1185.17 3662.37 1195.67 3662.37 1208C3662.37 1209.5 3662.29 1211.08 3662.12 1212.75C3662.12 1214.42 3662.04 1215.75 3661.87 1216.75H3558.87V1196.75H3633.62L3624.87 1208.25C3625.54 1207.25 3626.12 1205.92 3626.62 1204.25C3627.29 1202.42 3627.62 1200.92 3627.62 1199.75C3627.62 1194.08 3626.54 1189.25 3624.37 1185.25C3622.37 1181.25 3619.45 1178.08 3615.62 1175.75C3611.79 1173.42 3607.29 1172.25 3602.12 1172.25C3595.79 1172.25 3590.45 1173.67 3586.12 1176.5C3581.95 1179.17 3578.7 1183.25 3576.37 1188.75C3574.2 1194.08 3573.04 1200.75 3572.87 1208.75C3572.87 1216.42 3573.95 1222.92 3576.12 1228.25C3578.45 1233.58 3581.87 1237.67 3586.37 1240.5C3590.87 1243.33 3596.29 1244.75 3602.62 1244.75C3609.79 1244.75 3615.87 1243.42 3620.87 1240.75C3626.04 1237.92 3630.29 1233.75 3633.62 1228.25L3661.87 1237C3655.87 1247.83 3647.87 1256 3637.87 1261.5C3628.04 1266.83 3616.2 1269.5 3602.37 1269.5ZM3853.99 1173.25C3850.49 1169.25 3846.83 1165.08 3842.99 1160.75C3839.16 1156.42 3835.83 1151.75 3832.99 1146.75C3830.33 1141.75 3828.99 1136.25 3828.99 1130.25C3828.99 1122.75 3831.08 1115.83 3835.24 1109.5C3839.41 1103 3845.24 1097.83 3852.74 1094C3860.24 1090.17 3869.16 1088.25 3879.49 1088.25C3889.66 1088.25 3898.33 1090.25 3905.49 1094.25C3912.66 1098.25 3918.08 1103.42 3921.74 1109.75C3925.41 1115.92 3927.24 1122.5 3927.24 1129.5C3927.24 1134.83 3926.33 1139.58 3924.49 1143.75C3922.66 1147.92 3919.99 1151.92 3916.49 1155.75C3912.99 1159.58 3908.74 1163.33 3903.74 1167C3898.74 1170.67 3892.91 1174.67 3886.24 1179C3881.74 1181.83 3876.91 1184.5 3871.74 1187C3866.74 1189.33 3861.99 1191.83 3857.49 1194.5C3852.99 1197.17 3849.33 1200.33 3846.49 1204C3843.66 1207.67 3842.24 1212.25 3842.24 1217.75C3842.24 1222.42 3843.41 1226.67 3845.74 1230.5C3848.24 1234.17 3851.66 1237.08 3855.99 1239.25C3860.49 1241.25 3865.74 1242.25 3871.74 1242.25C3879.08 1242.25 3886.24 1240.75 3893.24 1237.75C3900.41 1234.58 3907.24 1230.33 3913.74 1225C3920.41 1219.5 3926.74 1213.25 3932.74 1206.25C3938.74 1199.08 3944.41 1191.58 3949.74 1183.75L3971.99 1200C3966.16 1208.17 3959.66 1216.42 3952.49 1224.75C3945.49 1233.08 3937.66 1240.67 3928.99 1247.5C3920.49 1254.17 3911.16 1259.58 3900.99 1263.75C3890.83 1267.92 3879.74 1270 3867.74 1270C3857.08 1270 3847.24 1268 3838.24 1264C3829.24 1260 3821.99 1254.33 3816.49 1247C3810.99 1239.5 3808.24 1230.67 3808.24 1220.5C3808.24 1212.67 3809.74 1205.92 3812.74 1200.25C3815.74 1194.58 3819.58 1189.75 3824.24 1185.75C3828.91 1181.58 3833.99 1178.08 3839.49 1175.25C3844.99 1172.42 3850.24 1170 3855.24 1168C3860.41 1165.83 3864.74 1163.92 3868.24 1162.25C3877.58 1157.42 3884.74 1152.42 3889.74 1147.25C3894.74 1141.92 3897.24 1136.83 3897.24 1132C3897.24 1128.83 3896.49 1125.92 3894.99 1123.25C3893.66 1120.58 3891.66 1118.5 3888.99 1117C3886.33 1115.33 3883.08 1114.5 3879.24 1114.5C3873.24 1114.5 3868.66 1116.25 3865.49 1119.75C3862.33 1123.08 3860.74 1127.08 3860.74 1131.75C3860.74 1136.92 3862.91 1142.08 3867.24 1147.25C3871.74 1152.25 3877.08 1158.17 3883.24 1165L3975.74 1267H3938.49L3853.99 1173.25ZM4153.33 1178.25V1162H4181.58C4186.74 1162 4191.24 1161.17 4195.08 1159.5C4198.91 1157.83 4201.83 1155.42 4203.83 1152.25C4205.99 1149.08 4207.08 1145.33 4207.08 1141C4207.08 1134.33 4204.74 1129.25 4200.08 1125.75C4195.58 1122.25 4189.41 1120.5 4181.58 1120.5H4162.33V1238.5H4185.33C4191.33 1238.5 4196.74 1237.67 4201.58 1236C4206.41 1234.17 4210.16 1231.33 4212.83 1227.5C4215.66 1223.67 4217.08 1218.75 4217.08 1212.75C4217.08 1208.42 4216.24 1204.75 4214.58 1201.75C4213.08 1198.58 4210.83 1196 4207.83 1194C4204.99 1191.83 4201.66 1190.33 4197.83 1189.5C4193.99 1188.5 4189.83 1188 4185.33 1188H4153.33V1168.5H4188.58C4197.08 1168.5 4205.16 1169.42 4212.83 1171.25C4220.66 1173.08 4227.66 1176 4233.83 1180C4239.99 1183.83 4244.83 1188.83 4248.33 1195C4251.99 1201.17 4253.83 1208.58 4253.83 1217.25C4253.83 1228.75 4251.08 1238.17 4245.58 1245.5C4240.24 1252.83 4232.66 1258.25 4222.83 1261.75C4212.99 1265.25 4201.58 1267 4188.58 1267H4126.58V1092H4184.83C4196.49 1092 4206.74 1093.67 4215.58 1097C4224.41 1100.17 4231.33 1105 4236.33 1111.5C4241.33 1118 4243.83 1126.25 4243.83 1136.25C4243.83 1145.08 4241.33 1152.67 4236.33 1159C4231.33 1165.33 4224.41 1170.17 4215.58 1173.5C4206.74 1176.67 4196.49 1178.25 4184.83 1178.25H4153.33ZM4361.79 1269.5C4349.29 1269.5 4338.38 1267 4329.04 1262C4319.71 1257 4312.46 1250.08 4307.29 1241.25C4302.29 1232.25 4299.79 1221.67 4299.79 1209.5C4299.79 1197.17 4302.29 1186.58 4307.29 1177.75C4312.46 1168.75 4319.71 1161.83 4329.04 1157C4338.38 1152 4349.38 1149.5 4362.04 1149.5C4374.71 1149.5 4385.46 1151.83 4394.29 1156.5C4403.29 1161 4410.13 1167.67 4414.79 1176.5C4419.46 1185.17 4421.79 1195.67 4421.79 1208C4421.79 1209.5 4421.71 1211.08 4421.54 1212.75C4421.54 1214.42 4421.46 1215.75 4421.29 1216.75H4318.29V1196.75H4393.04L4384.29 1208.25C4384.96 1207.25 4385.54 1205.92 4386.04 1204.25C4386.71 1202.42 4387.04 1200.92 4387.04 1199.75C4387.04 1194.08 4385.96 1189.25 4383.79 1185.25C4381.79 1181.25 4378.88 1178.08 4375.04 1175.75C4371.21 1173.42 4366.71 1172.25 4361.54 1172.25C4355.21 1172.25 4349.88 1173.67 4345.54 1176.5C4341.38 1179.17 4338.13 1183.25 4335.79 1188.75C4333.63 1194.08 4332.46 1200.75 4332.29 1208.75C4332.29 1216.42 4333.38 1222.92 4335.54 1228.25C4337.88 1233.58 4341.29 1237.67 4345.79 1240.5C4350.29 1243.33 4355.71 1244.75 4362.04 1244.75C4369.21 1244.75 4375.29 1243.42 4380.29 1240.75C4385.46 1237.92 4389.71 1233.75 4393.04 1228.25L4421.29 1237C4415.29 1247.83 4407.29 1256 4397.29 1261.5C4387.46 1266.83 4375.63 1269.5 4361.79 1269.5ZM4495.46 1231.25C4495.46 1234.58 4496.3 1237.5 4497.96 1240C4499.63 1242.33 4501.88 1244.17 4504.71 1245.5C4507.71 1246.67 4510.96 1247.25 4514.46 1247.25C4519.46 1247.25 4523.96 1246.25 4527.96 1244.25C4531.96 1242.08 4535.21 1239.08 4537.71 1235.25C4540.21 1231.25 4541.46 1226.5 4541.46 1221L4545.46 1236C4545.46 1243.33 4543.38 1249.5 4539.21 1254.5C4535.21 1259.5 4529.96 1263.25 4523.46 1265.75C4517.13 1268.25 4510.46 1269.5 4503.46 1269.5C4496.3 1269.5 4489.63 1268.08 4483.46 1265.25C4477.3 1262.42 4472.3 1258.33 4468.46 1253C4464.8 1247.5 4462.96 1240.83 4462.96 1233C4462.96 1221.83 4466.88 1213 4474.71 1206.5C4482.55 1200 4493.63 1196.75 4507.96 1196.75C4515.3 1196.75 4521.71 1197.5 4527.21 1199C4532.88 1200.5 4537.63 1202.33 4541.46 1204.5C4545.3 1206.67 4548.05 1208.75 4549.71 1210.75V1225.75C4545.21 1222.42 4540.13 1219.92 4534.46 1218.25C4528.96 1216.58 4523.13 1215.75 4516.96 1215.75C4511.96 1215.75 4507.88 1216.42 4504.71 1217.75C4501.55 1218.92 4499.21 1220.67 4497.71 1223C4496.21 1225.17 4495.46 1227.92 4495.46 1231.25ZM4482.96 1184.5L4470.96 1162.5C4476.96 1159.33 4484.3 1156.33 4492.96 1153.5C4501.63 1150.5 4511.3 1149 4521.96 1149C4531.8 1149 4540.55 1150.42 4548.21 1153.25C4555.88 1156.08 4561.88 1160.25 4566.21 1165.75C4570.55 1171.08 4572.71 1177.67 4572.71 1185.5V1267H4541.46V1192.25C4541.46 1189.08 4540.96 1186.42 4539.96 1184.25C4538.96 1181.92 4537.38 1180 4535.21 1178.5C4533.21 1177 4530.8 1175.92 4527.96 1175.25C4525.13 1174.58 4521.96 1174.25 4518.46 1174.25C4513.13 1174.25 4508.05 1174.83 4503.21 1176C4498.38 1177.17 4494.21 1178.58 4490.71 1180.25C4487.21 1181.92 4484.63 1183.33 4482.96 1184.5ZM4662.59 1222C4662.59 1229.5 4664.09 1235.33 4667.09 1239.5C4670.09 1243.5 4674.92 1245.5 4681.59 1245.5C4686.25 1245.5 4690.25 1244.58 4693.59 1242.75C4697.09 1240.75 4699.75 1238 4701.59 1234.5C4703.59 1231 4704.59 1226.83 4704.59 1222V1152H4736.84V1267H4704.59V1249.5C4700.92 1256 4696.25 1261 4690.59 1264.5C4684.92 1267.83 4678 1269.5 4669.84 1269.5C4656.17 1269.5 4645.92 1265.58 4639.09 1257.75C4632.42 1249.92 4629.09 1239.17 4629.09 1225.5V1152H4662.59V1222ZM4780.23 1152H4851.23V1179.25H4780.23V1152ZM4799.98 1112H4831.23V1267H4799.98V1112ZM5004.22 1152L4929.22 1322H4895.97L4924.97 1255.5L4877.22 1152H4913.22L4950.22 1243.5L4934.22 1243L4970.47 1152H5004.22Z" fill="white"/>
</svg>
