<svg xmlns="http://www.w3.org/2000/svg" version="1.1" xmlns:xlink="http://www.w3.org/1999/xlink" width="512" height="512" x="0" y="0" viewBox="0 0 48 48" style="enable-background:new 0 0 512 512" xml:space="preserve" class=""><g><path fill="#d29c75" d="M45.555 47.187c-.376 1.301-2.342.947-2.229-.433.569-6.928-1.64-13.165-6.359-17.788-4.742-4.646-14.45-6.72-20.351-5.826l3.465 2.841c.566.466.925 1.136.996 1.866.238 2.44-2.593 3.952-4.49 2.398L2.105 18.379a2.1 2.1 0 0 1-.287-2.963L13.745 1.005c1.563-1.889 4.629-.949 4.867 1.491a2.556 2.556 0 0 1-.566 1.969l-2.609 3.153c8.197.304 15.701 3.474 21.581 9.235 8.352 8.182 11.543 19.943 8.537 30.334z" opacity="1" data-original="#ed7161" class=""></path></g></svg>